<svg xmlns:dc="http://purl.org/dc/elements/1.1/" xmlns:cc="http://creativecommons.org/ns#" xmlns:rdf="http://www.w3.org/1999/02/22-rdf-syntax-ns#" xmlns:svg="http://www.w3.org/2000/svg" xmlns="http://www.w3.org/2000/svg" xmlns:xlink="http://www.w3.org/1999/xlink" id="svg141720" viewBox="0 0 1024 768" height="768px" width="1024px" version="1.1">
  <metadata id="metadata141726">
    <rdf:rdf>
      <cc:work rdf:about="">
        <dc:format>image/svg+xml</dc:format>
        <dc:type rdf:resource="http://purl.org/dc/dcmitype/StillImage"></dc:type>
      </cc:work>
    </rdf:rdf>
  </metadata>
  <defs id="defs141724"></defs>
  <linearGradient spreadMethod="pad" y2="30%" x2="-10%" y1="120%" x1="30%" id="3d_gradient2-logo-de9d1b79-9479-44a3-806f-a2f4f8efded1">
    <stop id="stop141701" stop-opacity="1" stop-color="#ffffff" offset="0%"></stop>
    <stop id="stop141703" stop-opacity="1" stop-color="#000000" offset="100%"></stop>
  </linearGradient>
  <linearGradient gradientTransform="rotate(-30)" spreadMethod="pad" y2="30%" x2="-10%" y1="120%" x1="30%" id="3d_gradient3-logo-de9d1b79-9479-44a3-806f-a2f4f8efded1">
    <stop id="stop141706" stop-opacity="1" stop-color="#ffffff" offset="0%"></stop>
    <stop id="stop141708" stop-opacity="1" stop-color="#cccccc" offset="50%"></stop>
    <stop id="stop141710" stop-opacity="1" stop-color="#000000" offset="100%"></stop>
  </linearGradient>
  <g id="logo-group">
    <image xlink:href="" id="container" style="display: none;" x="377.6" y="249.6" width="268.8" height="268.8" transform="translate(0 0)"></image>
    <g id="logo-center" transform="translate(36.065099999999916 0)">
      <image xlink:href="" id="icon_container" style="display: none;" x="0" y="0"></image>
      <g id="slogan" style="font-style:normal;font-weight:700;font-size:32px;line-height:1;font-family:'Brandmark1 Bold Color';font-variant-ligatures:none;text-align:center;text-anchor:middle" transform="translate(0 0)">
        <path id="path141728" style="font-style:normal;font-weight:700;font-size:32px;line-height:1;font-family:'Brandmark1 Bold Color';font-variant-ligatures:none;text-align:center;text-anchor:middle" d="m 354.0895,0.16 c 4,0 6.88,-1.824 8.864,-4.288 l -2.08,-1.76 c -1.6,2.016 -3.84,3.424 -6.784,3.424 -4.8,0 -8.416,-3.392 -8.416,-8.832 0,-5.216 3.232,-8.992 8.384,-8.992 2.56,0 4.896,1.088 6.784,3.424 l 2.08,-1.728 c -2.4,-2.944 -5.6,-4.352 -8.864,-4.352 -7.264,0 -11.296,5.216 -11.296,11.648 0,7.424 5.184,11.456 11.328,11.456 z" stroke-width="0" stroke-linejoin="miter" stroke-miterlimit="2" fill="#ffffff" stroke="#ffffff" transform="translate(0 391.42215999999996) translate(50 28.432640000000003) scale(1.94) translate(-342.7615 22.944)"></path>
        <path id="path141730" style="font-style:normal;font-weight:700;font-size:32px;line-height:1;font-family:'Brandmark1 Bold Color';font-variant-ligatures:none;text-align:center;text-anchor:middle" d="m 373.117,0.192 c 2.528,0 4.448,-1.152 5.568,-3.008 h 0.032 V 0 h 2.496 v -15.584 h -2.592 v 2.752 l -0.064,0.032 c -1.12,-1.888 -3.136,-2.976 -5.44,-2.976 -4.416,0 -7.584,3.488 -7.584,8.096 0,4.736 3.296,7.872 7.584,7.872 z m 0.384,-2.368 c -3.2,0 -5.344,-2.368 -5.344,-5.504 0,-3.456 2.4,-5.728 5.344,-5.728 3.072,0 5.216,2.528 5.216,5.728 0,3.296 -2.336,5.504 -5.216,5.504 z" stroke-width="0" stroke-linejoin="miter" stroke-miterlimit="2" fill="#ffffff" stroke="#ffffff" transform="translate(0 391.42215999999996) translate(105.81671 42.33856) scale(1.94) translate(-365.533 15.776)"></path>
        <path id="path141732" style="font-style:normal;font-weight:700;font-size:32px;line-height:1;font-family:'Brandmark1 Bold Color';font-variant-ligatures:none;text-align:center;text-anchor:middle" d="M 385.8695,-15.584 V 0 h 2.592 v -6.496 h 8.416 V 0 h 2.592 v -15.584 h -2.592 v 6.848 h -8.416 v -6.848 z" stroke-width="0" stroke-linejoin="miter" stroke-miterlimit="2" fill="#ffffff" stroke="#ffffff" transform="translate(0 391.42215999999996) translate(156.90952 42.71104) scale(1.94) translate(-385.8695 15.584)"></path>
        <path id="path141734" style="font-style:normal;font-weight:700;font-size:32px;line-height:1;font-family:'Brandmark1 Bold Color';font-variant-ligatures:none;text-align:center;text-anchor:middle" d="m 410.867,0.192 c 2.528,0 4.448,-1.152 5.568,-3.008 h 0.032 V 0 h 2.496 v -15.584 h -2.592 v 2.752 l -0.064,0.032 c -1.12,-1.888 -3.136,-2.976 -5.44,-2.976 -4.416,0 -7.584,3.488 -7.584,8.096 0,4.736 3.296,7.872 7.584,7.872 z m 0.384,-2.368 c -3.2,0 -5.344,-2.368 -5.344,-5.504 0,-3.456 2.4,-5.728 5.344,-5.728 3.072,0 5.216,2.528 5.216,5.728 0,3.296 -2.336,5.504 -5.216,5.504 z" stroke-width="0" stroke-linejoin="miter" stroke-miterlimit="2" fill="#ffffff" stroke="#ffffff" transform="translate(0 391.42215999999996) translate(202.33170999999996 42.33856) scale(1.94) translate(-403.283 15.776)"></path>
        <path id="path141736" style="font-style:normal;font-weight:700;font-size:32px;line-height:1;font-family:'Brandmark1 Bold Color';font-variant-ligatures:none;text-align:center;text-anchor:middle" d="M 427.2355,-13.28 V 0 h 2.592 v -13.28 h 5.216 v -2.304 h -13.024 v 2.304 z" stroke-width="0" stroke-linejoin="miter" stroke-miterlimit="2" fill="#ffffff" stroke="#ffffff" transform="translate(0 391.42215999999996) translate(250.3205199999999 42.71104) scale(1.94) translate(-422.0195 15.584)"></path>
        <path id="path141738" style="font-style:normal;font-weight:700;font-size:32px;line-height:1;font-family:'Brandmark1 Bold Color';font-variant-ligatures:none;text-align:center;text-anchor:middle" d="m 444.8165,0.192 c 4.608,0 8.032,-3.232 8.032,-7.968 0,-4.736 -3.424,-8 -8.032,-8 -4.832,0 -8.064,3.52 -8.064,8 0,4.48 3.232,7.968 8.064,7.968 z m 0,-2.368 c -3.232,0 -5.408,-2.496 -5.408,-5.6 0,-3.104 2.144,-5.632 5.408,-5.632 3.008,0 5.376,2.304 5.376,5.632 0,3.328 -2.4,5.6 -5.376,5.6 z" stroke-width="0" stroke-linejoin="miter" stroke-miterlimit="2" fill="#ffffff" stroke="#ffffff" transform="translate(0 391.42215999999996) translate(290.5425399999999 42.33856) scale(1.94) translate(-436.7525 15.776)"></path>
        <path id="path141740" style="font-style:normal;font-weight:700;font-size:32px;line-height:1;font-family:'Brandmark1 Bold Color';font-variant-ligatures:none;text-align:center;text-anchor:middle" d="m 456.7445,-15.584 v 21.92 h 2.592 v -9.024 h 0.032 c 1.152,1.792 3.072,2.88 5.536,2.88 4.288,0 7.584,-3.136 7.584,-7.872 0,-4.608 -3.168,-8.096 -7.584,-8.096 -2.368,0 -4.352,1.088 -5.536,2.944 h -0.032 v -2.752 z m 7.808,13.408 c -2.976,0 -5.344,-2.208 -5.344,-5.504 0,-3.2 2.144,-5.728 5.312,-5.728 2.944,0 5.344,2.272 5.344,5.728 0,3.136 -2.176,5.504 -5.312,5.504 z" stroke-width="0" stroke-linejoin="miter" stroke-miterlimit="2" fill="#ffffff" stroke="#ffffff" transform="translate(0 391.42215999999996) translate(340.96701999999993 42.33856) scale(1.94) translate(-456.7445 15.776)"></path>
        <path id="path141742" style="font-style:normal;font-weight:700;font-size:32px;line-height:1;font-family:'Brandmark1 Bold Color';font-variant-ligatures:none;text-align:center;text-anchor:middle" d="M 476.3695,-15.584 V 0 h 2.496 l 8.768,-11.584 h 0.064 V 0 h 2.592 v -15.584 h -2.464 l -8.8,11.84 h -0.064 v -11.84 z" stroke-width="0" stroke-linejoin="miter" stroke-miterlimit="2" fill="#ffffff" stroke="#ffffff" transform="translate(0 391.42215999999996) translate(390.6795199999999 42.71104) scale(1.94) translate(-476.3695 15.584)"></path>
        <path id="path141744" style="font-style:normal;font-weight:700;font-size:32px;line-height:1;font-family:'Brandmark1 Bold Color';font-variant-ligatures:none;text-align:center;text-anchor:middle" d="m 502.318,-17.728 c 2.432,0 4.608,-1.152 5.088,-4.256 l -2.304,-0.416 c -0.096,1.44 -0.896,2.976 -2.784,2.976 -1.856,0 -2.656,-1.536 -2.784,-2.976 l -2.304,0.416 c 0.48,3.104 2.656,4.256 5.088,4.256 z m -7.136,2.144 V 0 h 2.496 l 8.768,-11.584 h 0.064 V 0 h 2.592 v -15.584 h -2.464 l -8.8,11.84 h -0.064 v -11.84 z" stroke-width="0" stroke-linejoin="miter" stroke-miterlimit="2" fill="#ffffff" stroke="#ffffff" transform="translate(0 391.42215999999996) translate(438.8157699999999 29.488000000000003) scale(1.94) translate(-495.182 22.4)"></path>
        <path id="path141746" style="font-style:normal;font-weight:700;font-size:32px;line-height:1;font-family:'Brandmark1 Bold Color';font-variant-ligatures:none;text-align:center;text-anchor:middle" d="m 533.402,0.16 c 4,0 6.88,-1.824 8.864,-4.288 l -2.08,-1.76 c -1.6,2.016 -3.84,3.424 -6.784,3.424 -4.8,0 -8.416,-3.392 -8.416,-8.832 0,-5.216 3.232,-8.992 8.384,-8.992 2.56,0 4.896,1.088 6.784,3.424 l 2.08,-1.728 c -2.4,-2.944 -5.6,-4.352 -8.864,-4.352 -7.264,0 -11.296,5.216 -11.296,11.648 0,7.424 5.184,11.456 11.328,11.456 z" stroke-width="0" stroke-linejoin="miter" stroke-miterlimit="2" fill="#ffffff" stroke="#ffffff" transform="translate(0 391.42215999999996) translate(502.6262499999997 28.432640000000003) scale(1.94) translate(-522.074 22.944)"></path>
        <path id="path141748" style="font-style:normal;font-weight:700;font-size:32px;line-height:1;font-family:'Brandmark1 Bold Color';font-variant-ligatures:none;text-align:center;text-anchor:middle" d="m 552.4295,0.192 c 2.528,0 4.448,-1.152 5.568,-3.008 h 0.032 V 0 h 2.496 v -15.584 h -2.592 v 2.752 l -0.064,0.032 c -1.12,-1.888 -3.136,-2.976 -5.44,-2.976 -4.416,0 -7.584,3.488 -7.584,8.096 0,4.736 3.296,7.872 7.584,7.872 z m 0.384,-2.368 c -3.2,0 -5.344,-2.368 -5.344,-5.504 0,-3.456 2.4,-5.728 5.344,-5.728 3.072,0 5.216,2.528 5.216,5.728 0,3.296 -2.336,5.504 -5.216,5.504 z" stroke-width="0" stroke-linejoin="miter" stroke-miterlimit="2" fill="#ffffff" stroke="#ffffff" transform="translate(0 391.42215999999996) translate(558.4429599999997 42.33856) scale(1.94) translate(-544.8455 15.776)"></path>
        <path id="path141750" style="font-style:normal;font-weight:700;font-size:32px;line-height:1;font-family:'Brandmark1 Bold Color';font-variant-ligatures:none;text-align:center;text-anchor:middle" d="m 565.182,-15.584 v 21.92 h 2.592 v -9.024 h 0.032 c 1.152,1.792 3.072,2.88 5.536,2.88 4.288,0 7.584,-3.136 7.584,-7.872 0,-4.608 -3.168,-8.096 -7.584,-8.096 -2.368,0 -4.352,1.088 -5.536,2.944 h -0.032 v -2.752 z m 7.808,13.408 c -2.976,0 -5.344,-2.208 -5.344,-5.504 0,-3.2 2.144,-5.728 5.312,-5.728 2.944,0 5.344,2.272 5.344,5.728 0,3.136 -2.176,5.504 -5.312,5.504 z" stroke-width="0" stroke-linejoin="miter" stroke-miterlimit="2" fill="#ffffff" stroke="#ffffff" transform="translate(0 391.42215999999996) translate(609.5357699999998 42.33856) scale(1.94) translate(-565.182 15.776)"></path>
        <path id="path141752" style="font-style:normal;font-weight:700;font-size:32px;line-height:1;font-family:'Brandmark1 Bold Color';font-variant-ligatures:none;text-align:center;text-anchor:middle" d="M 584.807,-15.584 V 0 h 5.856 c 4.448,0 6.176,-2.08 6.176,-5.184 0,-3.168 -1.6,-5.216 -5.952,-5.216 h -3.488 v -5.184 z m 14.976,0 V 0 h 2.592 v -15.584 z m -9.12,13.344 h -3.264 v -5.952 h 3.392 c 2.272,0 3.424,0.992 3.424,3.04 0,1.888 -1.152,2.912 -3.552,2.912 z" stroke-width="0" stroke-linejoin="miter" stroke-miterlimit="2" fill="#ffffff" stroke="#ffffff" transform="translate(0 391.42215999999996) translate(659.2482699999998 42.71104) scale(1.94) translate(-584.807 15.584)"></path>
        <path id="path141754" style="font-style:normal;font-weight:700;font-size:32px;line-height:1;font-family:'Brandmark1 Bold Color';font-variant-ligatures:none;text-align:center;text-anchor:middle" d="m 613.8045,0.192 c 2.528,0 4.448,-1.152 5.568,-3.008 h 0.032 V 0 h 2.496 v -15.584 h -2.592 v 2.752 l -0.064,0.032 c -1.12,-1.888 -3.136,-2.976 -5.44,-2.976 -4.416,0 -7.584,3.488 -7.584,8.096 0,4.736 3.296,7.872 7.584,7.872 z m 0.384,-2.368 c -3.2,0 -5.344,-2.368 -5.344,-5.504 0,-3.456 2.4,-5.728 5.344,-5.728 3.072,0 5.216,2.528 5.216,5.728 0,3.296 -2.336,5.504 -5.216,5.504 z" stroke-width="0" stroke-linejoin="miter" stroke-miterlimit="2" fill="#ffffff" stroke="#ffffff" transform="translate(0 391.42215999999996) translate(712.4304599999998 42.33856) scale(1.94) translate(-606.2205 15.776)"></path>
        <path id="path141756" style="font-style:normal;font-weight:700;font-size:32px;line-height:1;font-family:'Brandmark1 Bold Color';font-variant-ligatures:none;text-align:center;text-anchor:middle" d="M 626.557,-15.584 V 0 h 2.592 v -13.28 h 8.096 v -2.304 z" stroke-width="0" stroke-linejoin="miter" stroke-miterlimit="2" fill="#ffffff" stroke="#ffffff" transform="translate(0 391.42215999999996) translate(763.5232699999999 42.71104) scale(1.94) translate(-626.557 15.584)"></path>
        <path id="path141758" style="font-style:normal;font-weight:700;font-size:32px;line-height:1;font-family:'Brandmark1 Bold Color';font-variant-ligatures:none;text-align:center;text-anchor:middle" d="m 646.6795,0.192 c 2.528,0 4.448,-1.152 5.568,-3.008 h 0.032 V 0 h 2.496 v -15.584 h -2.592 v 2.752 l -0.064,0.032 c -1.12,-1.888 -3.136,-2.976 -5.44,-2.976 -4.416,0 -7.584,3.488 -7.584,8.096 0,4.736 3.296,7.872 7.584,7.872 z m 0.384,-2.368 c -3.2,0 -5.344,-2.368 -5.344,-5.504 0,-3.456 2.4,-5.728 5.344,-5.728 3.072,0 5.216,2.528 5.216,5.728 0,3.296 -2.336,5.504 -5.216,5.504 z" stroke-width="0" stroke-linejoin="miter" stroke-miterlimit="2" fill="#ffffff" stroke="#ffffff" transform="translate(0 391.42215999999996) translate(799.4879599999999 42.33856) scale(1.94) translate(-639.0955 15.776)"></path>
        <path id="path141760" style="font-style:normal;font-weight:700;font-size:32px;line-height:1;font-family:'Brandmark1 Bold Color';font-variant-ligatures:none;text-align:center;text-anchor:middle" d="M 659.368,-15.584 V 0 h 21.312 v -15.584 h -2.592 v 13.28 h -6.752 v -13.28 h -2.592 v 13.28 h -6.784 v -13.28 z" stroke-width="0" stroke-linejoin="miter" stroke-miterlimit="2" fill="#ffffff" stroke="#ffffff" transform="translate(0 391.42215999999996) translate(850.4566100000002 42.71104) scale(1.94) translate(-659.368 15.584)"></path>
      </g>
      <g id="title" style="font-style:normal;font-weight:700;font-size:72px;line-height:1;font-family:'Brandmark1 Bold Color';font-variant-ligatures:normal;text-align:center;text-anchor:middle" transform="translate(0 0)">
        <g id="path141763" aria-label="A" transform="translate(0 284.542) translate(50 7.447999999999993) scale(1.8) translate(-290.26081 53.64)"> <polygon class="c1" points="104.82788,71.91748 95.08569,71.91748 73.80786,128.08252 85.77515,128.08252 99.93921,89.14844 114.22534,128.08252 126.19214,128.08252 " transform="translate(216.45295 -125.55748)" stroke-width="0" stroke-linejoin="miter" stroke-miterlimit="2" fill="#ffffff" stroke="#ffffff"></polygon> <polygon class="c3" points="100.03819,128.08252 91.09854,114.24284 108.90146,114.24284 " transform="translate(216.45295 -125.55748)" stroke-width="0" stroke-linejoin="miter" stroke-miterlimit="2" fill="#e74431" stroke="#e74431"></polygon> </g>
        <g id="path141765" aria-label="Q" transform="translate(0 284.542) translate(145.79780000000002 6.799999999999997) scale(1.8) translate(-339.48181 54)"> <path class="c1" d="M110.97461,111.0708c-3.2334,3.2334-7.52441,5.01172-12.09766,5.01172 c-4.57227,0-8.86328-1.77832-12.09668-5.01172c-3.2334-3.23291-5.01172-7.52441-5.01172-12.09668 c0-4.57275,1.77832-8.86426,5.01172-12.09717s7.53223-5.01172,12.09668-5.01172c4.56543,0,8.86426,1.77881,12.09766,5.01172 s5.01172,7.52441,5.01172,12.09717C115.98633,103.54639,114.20801,107.83789,110.97461,111.0708h13.60559 c0.16248-0.34491,0.32233-0.69141,0.47156-1.04395c1.4834-3.50684,2.23242-7.22949,2.23242-11.06006 s-0.74902-7.55371-2.23242-11.06006c-1.43262-3.38428-3.47754-6.42334-6.08496-9.02979 c-2.60645-2.60645-5.64453-4.65137-9.0293-6.08447c-3.50684-1.4834-7.22949-2.23242-11.06055-2.23242 c-3.83008,0-7.55273,0.74902-11.05957,2.23242c-3.38477,1.43311-6.42285,3.47803-9.0293,6.08447 c-2.60742,2.60645-4.65234,5.64551-6.08496,9.02979c-1.4834,3.50635-2.23242,7.22949-2.23242,11.06006 s0.74902,7.55322,2.23242,11.06006c1.43262,3.38428,3.47754,6.42285,6.08496,9.02979 c2.60645,2.60645,5.64453,4.65137,9.0293,6.08447c3.50684,1.4834,7.22949,2.23145,11.05957,2.23145 c3.83105,0,7.55371-0.74805,11.06055-2.23145c0.35022-0.14832,0.6944-0.30719,1.03711-0.46851V111.0708z" transform="translate(269.01111 -124.56005)" stroke-width="0" stroke-linejoin="miter" stroke-miterlimit="2" fill="#ffffff" stroke="#ffffff"></path> <polygon class="c3" points="114.67699,129.43994 129.5293,129.43994 111.1329,111.04355 96.04421,110.80716 " transform="translate(269.01111 -124.56005)" stroke-width="0" stroke-linejoin="miter" stroke-miterlimit="2" fill="#e74431" stroke="#e74431"></polygon> </g>
        <path id="path141767" style="font-style:normal;font-weight:700;font-size:72px;line-height:1;font-family:'Brandmark1 Bold Color';font-variant-ligatures:normal;text-align:center;text-anchor:middle" d="m 422.37406,-25.056 v 5.76 h 21.312 v -5.76 z" stroke-width="0" stroke-linejoin="miter" stroke-miterlimit="2" fill="#f3a298" stroke="#f3a298" transform="translate(0 284.542) translate(302.20385 58.8992) scale(1.8) translate(-422.37406 25.056)"></path>
        <g id="path141769" aria-label="Z" transform="translate(0 284.542) translate(392.961434 7.447999999999993) scale(1.8) translate(-468.79494 53.64)"> <path class="c1" d="M79.26221,119.82275l25.05078-37.17627H79.91064l7.9209-10.729h31.89844v8.26611l-25.28906,37.16943 h26.29688l-7.9209,10.72949H79.26221V119.82275z" transform="translate(389.53273 -125.55748)" stroke-width="0" stroke-linejoin="miter" stroke-miterlimit="2" fill="#ffffff" stroke="#ffffff"></path> </g>
        <g id="path141771" aria-label="H" transform="translate(0 284.542) translate(483.660284 7.447999999999993) scale(1.8) translate(-515.18319 53.64)"> <path class="c1" d="M110.83716,106.62451H89.16284v21.45801H77.85815V71.91748h11.30469v23.97803h21.67432V71.91748h11.30469 v56.16504h-11.30469V106.62451z" transform="translate(437.32504 -125.55748)" stroke-width="0" stroke-linejoin="miter" stroke-miterlimit="2" fill="#ffffff" stroke="#ffffff"></path> </g>
        <g id="path141773" aria-label="A" transform="translate(0 284.542) translate(574.0250000000001 7.447999999999993) scale(1.8) translate(-561.38581 53.64)"> <polygon class="c1" points="104.82788,71.91748 95.08569,71.91748 73.80786,128.08252 85.77515,128.08252 99.93921,89.14844 114.22534,128.08252 126.19214,128.08252 " transform="translate(487.57795 -125.55748)" stroke-width="0" stroke-linejoin="miter" stroke-miterlimit="2" fill="#ffffff" stroke="#ffffff"></polygon> <polygon class="c3" points="100.03819,128.08252 91.09854,114.24284 108.90146,114.24284 " transform="translate(487.57795 -125.55748)" stroke-width="0" stroke-linejoin="miter" stroke-miterlimit="2" fill="#e74431" stroke="#e74431"></polygon> </g>
        <g id="path141775" aria-label="I" transform="translate(0 284.542) translate(679.69265 7.447999999999993) scale(1.8) translate(-616.09006 53.64)"> <path class="c1" d="M94.34741,75.51758l11.30518-3.6001v56.16504H94.34741V75.51758z" transform="translate(521.74265 -125.55748)" stroke-width="0" stroke-linejoin="miter" stroke-miterlimit="2" fill="#ffffff" stroke="#ffffff"></path> </g>
        <g id="path141777" aria-label="Y" transform="translate(0 284.542) translate(708.5925500000002 7.447999999999993) scale(1.8) translate(-628.14556 53.64)"> <path class="c1" d="M94.26416,103.44873L74.93115,71.91748h13.12598L99.9458,91.63281l11.83105-19.71533h13.29199 l-19.49902,31.53125v24.63379H94.26416V103.44873z" transform="translate(553.21441 -125.55748)" stroke-width="0" stroke-linejoin="miter" stroke-miterlimit="2" fill="#ffffff" stroke="#ffffff"></path> </g>
        <g id="path141779" aria-label="Q" transform="translate(0 284.542) translate(795.5978000000001 6.799999999999997) scale(1.8) translate(-672.48181 54)"> <path class="c1" d="M110.97461,111.0708c-3.2334,3.2334-7.52441,5.01172-12.09766,5.01172 c-4.57227,0-8.86328-1.77832-12.09668-5.01172c-3.2334-3.23291-5.01172-7.52441-5.01172-12.09668 c0-4.57275,1.77832-8.86426,5.01172-12.09717s7.53223-5.01172,12.09668-5.01172c4.56543,0,8.86426,1.77881,12.09766,5.01172 s5.01172,7.52441,5.01172,12.09717C115.98633,103.54639,114.20801,107.83789,110.97461,111.0708h13.60559 c0.16248-0.34491,0.32233-0.69141,0.47156-1.04395c1.4834-3.50684,2.23242-7.22949,2.23242-11.06006 s-0.74902-7.55371-2.23242-11.06006c-1.43262-3.38428-3.47754-6.42334-6.08496-9.02979 c-2.60645-2.60645-5.64453-4.65137-9.0293-6.08447c-3.50684-1.4834-7.22949-2.23242-11.06055-2.23242 c-3.83008,0-7.55273,0.74902-11.05957,2.23242c-3.38477,1.43311-6.42285,3.47803-9.0293,6.08447 c-2.60742,2.60645-4.65234,5.64551-6.08496,9.02979c-1.4834,3.50635-2.23242,7.22949-2.23242,11.06006 s0.74902,7.55322,2.23242,11.06006c1.43262,3.38428,3.47754,6.42285,6.08496,9.02979 c2.60645,2.60645,5.64453,4.65137,9.0293,6.08447c3.50684,1.4834,7.22949,2.23145,11.05957,2.23145 c3.83105,0,7.55371-0.74805,11.06055-2.23145c0.35022-0.14832,0.6944-0.30719,1.03711-0.46851V111.0708z" transform="translate(602.01111 -124.56005)" stroke-width="0" stroke-linejoin="miter" stroke-miterlimit="2" fill="#ffffff" stroke="#ffffff"></path> <polygon class="c3" points="114.67699,129.43994 129.5293,129.43994 111.1329,111.04355 96.04421,110.80716 " transform="translate(602.01111 -124.56005)" stroke-width="0" stroke-linejoin="miter" stroke-miterlimit="2" fill="#e74431" stroke="#e74431"></polygon> </g>
              </g>
      <image xlink:href="https://app.brandmark.io/nounpreview/126896.png" id="icon" style="display: none;" x="0" y="0"></image>
    </g>
  </g>
</svg>